<?xml version="1.0" encoding="UTF-8" standalone="no"?>
<svg width="256px" height="148px" viewBox="0 0 256 148" version="1.1" xmlns="http://www.w3.org/2000/svg" xmlns:xlink="http://www.w3.org/1999/xlink" xmlns:sketch="http://www.bohemiancoding.com/sketch/ns">
    <!-- Generator: Sketch 3.3.2 (12043) - http://www.bohemiancoding.com/sketch -->
    <title>bowl</title>
    <desc>Created with Sketch.</desc>
    <defs></defs>
    <g id="Page-1" stroke="none" stroke-width="1" fill="none" fill-rule="evenodd" sketch:type="MSPage">
        <g id="bowl" sketch:type="MSLayerGroup">
            <path d="M0,7.99075354 C0,3.57758222 3.58221516,0 7.99544162,0 L248.004558,0 C252.420319,0 256,3.57559919 256,7.99075354 L256,12.0092465 C256,16.4224178 252.419527,20 247.999153,20 L43.9072266,20 L7.99175066,20 C3.57802865,20 0,16.4244008 0,12.0092465 L0,7.99075354 Z" id="Rectangle-2" fill="#fff" sketch:type="MSShapeGroup"></path>
            <path d="M22.9589844,76.742186 C9.00881509,51.489246 9.36914062,21.6194065 9.36914062,19.9296875 C9.36914062,18.3678316 213.072266,19.9296875 246.958008,19.9296875 C246.958008,33.3253135 243.994461,57.0405971 231.996094,76.742186 C216.816766,101.666986 191.847656,121.571289 191.847656,121.571289 L64.8369144,121.571291 C64.3518309,121.052061 36.3766344,101.031147 22.9589844,76.742186 Z" id="Path-1" fill="#fff" sketch:type="MSShapeGroup"></path>
            <rect id="Rectangle-3" fill="#fff" sketch:type="MSShapeGroup" x="64" y="121" width="128" height="27"></rect>
        </g>
    </g>
</svg>