<?xml version="1.0" encoding="utf-8"?>
<!-- Generator: Adobe Illustrator 18.1.1, SVG Export Plug-In . SVG Version: 6.00 Build 0)  -->
<svg version="1.1" id="Layer_1" xmlns="http://www.w3.org/2000/svg" xmlns:xlink="http://www.w3.org/1999/xlink" x="0px" y="0px"
	 viewBox="0 0 841.9 595.3" enable-background="new 0 0 841.9 595.3" xml:space="preserve">
<g>
	<path fill="#FFFFFF" stroke="#33A3DC" stroke-miterlimit="10" d="M619,171.7c6.7,3.9,12.3,13.5,12.3,21.4v213.8
		c0,7.8-5.5,17.5-12.3,21.4l-185.2,107c-6.7,3.9-17.9,3.9-24.7,0l-185.2-107c-6.7-3.9-12.3-13.5-12.3-21.4V193.1
		c0-7.8,5.5-17.5,12.3-21.4l185.2-107c6.7-3.9,17.9-3.9,24.7,0L619,171.7z"/>
	<path fill="none" stroke="#33A3DC" stroke-width="27" stroke-miterlimit="10" d="M619,171.7c6.7,3.9,12.3,13.5,12.3,21.4v213.8
		c0,7.8-5.5,17.5-12.3,21.4l-185.2,107c-6.7,3.9-17.9,3.9-24.7,0l-185.2-107c-6.7-3.9-12.3-13.5-12.3-21.4V193.1
		c0-7.8,5.5-17.5,12.3-21.4l185.2-107c6.7-3.9,17.9-3.9,24.7,0L619,171.7z"/>
</g>
<g>
	<path fill="#33A3DC" d="M223.8,200c51,0,115.9,0,233.6,0c-65.5,47.1-54.6,233.1-196.6,233.1c-10.1,0-36.9,0-36.9,0L223.8,200
		L223.8,200z"/>
	<path fill="#33A3DC" d="M206.4,177.3v43.3c139.1,0,251.7-9.7,251.7-21.7C458.1,187,345.5,177.3,206.4,177.3z"/>
</g>
</svg>
